<svg width="48" height="48" viewBox="0 0 48 48" fill="none" xmlns="http://www.w3.org/2000/svg">
<path d="M30.9896 9.55058C30.9896 6.3477 29.6989 3.4467 27.6101 1.33602C27.3821 1.10492 26.7073 0.928297 26.2778 1.66095C25.8476 2.39295 24.6648 4.23261 24.6648 4.23261C24.521 4.46117 24.2693 4.59992 24.0002 4.59992C23.7299 4.59992 23.4794 4.46117 23.3356 4.23261C23.3356 4.23261 22.1522 2.39295 21.7226 1.66095C21.2931 0.928297 20.6182 1.10492 20.3896 1.33602C18.3014 3.4467 17.0109 6.3477 17.0109 9.55058C17.0109 14.3337 19.8855 18.4425 24.0002 20.2514C28.1149 18.4425 30.9896 14.3336 30.9896 9.55058Z" fill="#FCFCFA"/>
<path d="M19.1728 23.7586C18.7247 19.2862 15.7043 15.2827 11.1555 13.8046C8.10938 12.8151 4.95141 13.1458 2.29894 14.48C2.00869 14.6258 1.63172 15.2133 2.19619 15.8478C2.75935 16.4828 4.143 18.1767 4.143 18.1767C4.31635 18.3841 4.37101 18.6661 4.28757 18.9222C4.20404 19.1791 3.99413 19.3749 3.73276 19.4404C3.73276 19.4404 1.61757 19.9978 0.78863 20.1801C-0.0409638 20.3625 -0.0814638 21.0586 0.0675049 21.3468C1.42941 23.9853 3.78919 26.1094 6.83597 27.0995C11.3846 28.5776 16.1813 27.1136 19.1728 23.7586Z" fill="#FCFCFA"/>
<path d="M9.0724 33.9829C7.18971 36.5744 6.5284 39.6797 6.97783 42.6148C7.02724 42.9358 7.46843 43.4752 8.24599 43.1355C9.02487 42.7952 11.0636 42.0022 11.0636 42.0022C11.3141 41.9027 11.5977 41.9374 11.8174 42.096C12.0357 42.2546 12.1571 42.5147 12.1378 42.7837C12.1378 42.7837 12.0152 44.9675 11.9317 45.8132C11.8489 46.6575 12.4987 46.9112 12.8191 46.8585C15.749 46.3789 18.4986 44.7909 20.3812 42.1987C23.193 38.3301 23.2822 33.3152 21.0169 29.4342C16.6249 28.4787 11.8836 30.1129 9.0724 33.9829Z" fill="#FCFCFA"/>
<path d="M26.9835 29.4341C24.718 33.3151 24.8074 38.3299 27.6191 42.1986C29.5018 44.7908 32.2513 46.3788 35.1813 46.8584C35.5017 46.9111 36.1515 46.6574 36.0687 45.8131C35.9853 44.9674 35.862 42.7836 35.862 42.7836C35.8434 42.5146 35.9653 42.2545 36.1837 42.0959C36.4013 41.9373 36.6864 41.9026 36.9368 42.0021C36.9368 42.0021 38.9755 42.7951 39.7538 43.1354C40.5313 43.475 40.9732 42.9357 41.0226 42.6147C41.4713 39.6796 40.8113 36.5744 38.928 33.9828C36.1168 30.1129 31.3755 28.4781 26.9835 29.4341Z" fill="#FCFCFA"/>
<path d="M47.2125 20.18C46.3829 19.9977 44.2678 19.4404 44.2678 19.4404C44.0058 19.3742 43.7965 19.179 43.713 18.9221C43.6295 18.666 43.6841 18.384 43.8568 18.1766C43.8568 18.1766 45.2405 16.4827 45.8049 15.8477C46.3687 15.2134 45.9918 14.6257 45.7022 14.48C43.049 13.1457 39.8917 12.815 36.8442 13.8045C32.2955 15.2826 29.2757 19.2862 28.8275 23.7585C31.819 27.1135 36.615 28.5775 41.1643 27.0994C44.2104 26.1093 46.5709 23.9852 47.9322 21.3467C48.0813 21.0585 48.0421 20.3624 47.2125 20.18Z" fill="#FCFCFA"/>
</svg>
